<svg width="332" height="302" viewBox="0 0 332 302" fill="none" xmlns="http://www.w3.org/2000/svg">
<g clip-path="url(#clip0_20_2)">
<mask id="mask0_20_2" style="mask-type:luminance" maskUnits="userSpaceOnUse" x="0" y="0" width="332" height="302">
<path d="M0 0.000354767H331.662V301.512H0V0.000354767Z" fill="white"/>
</mask>
<g mask="url(#mask0_20_2)">
<path d="M23.9635 148.256H38.1358C38.1609 149.247 38.1999 150.253 38.2639 151.26L38.2878 151.559H45.9738L45.9487 151.219C45.7477 147.78 45.6987 144.301 45.8017 140.88L45.8118 140.566H31.6533C31.7664 136.449 32.0654 132.375 32.5076 128.444C32.9837 124.386 33.6357 120.342 34.48 116.397C35.3091 112.466 36.3493 108.481 37.5717 104.599C38.7501 100.831 40.1333 96.9737 41.6886 93.1797L54.6297 98.9713L54.7428 98.671C55.974 95.6433 57.3433 92.6546 58.7617 89.8279C60.1951 86.9724 61.7655 84.1595 63.4137 81.461C65.0733 78.7574 66.8547 76.0677 68.7291 73.4961C70.5985 70.9294 72.6199 68.3679 74.7556 65.8804L74.9717 65.6291L63.954 56.683C66.6135 53.5674 69.4063 50.5686 72.233 47.801C75.1476 44.9505 78.2004 42.2118 81.316 39.6891C84.4329 37.1476 87.7357 34.723 91.1113 32.4754C94.3953 30.2769 97.8991 28.1663 101.491 26.194L107.924 38.87L108.199 38.718C111.075 37.1476 113.98 35.6891 116.865 34.3838C119.771 33.0785 122.75 31.8862 125.724 30.831C128.702 29.7757 131.77 28.8196 134.857 28.0143C137.939 27.2091 141.113 26.4829 144.318 25.9038L144.632 25.8548L141.692 11.9375C145.711 11.1913 149.76 10.6272 153.691 10.249C157.725 9.87718 161.817 9.67492 165.837 9.67492C169.861 9.67492 173.929 9.87718 177.988 10.249C181.909 10.6272 185.952 11.1913 189.986 11.9375L187.046 25.8409L187.36 25.895C190.56 26.4829 193.755 27.2003 196.817 28.0043C199.894 28.8334 202.961 29.7618 205.949 30.8171C208.919 31.8712 211.908 33.0785 214.808 34.375C217.698 35.6803 220.623 37.1376 223.479 38.7079L223.754 38.8599L230.187 26.1839C233.78 28.1513 237.259 30.2669 240.562 32.4654C243.944 34.7129 247.245 37.1476 250.362 39.674C253.478 42.2118 256.53 44.9505 259.445 47.791C262.272 50.5536 265.049 53.5423 267.724 56.6742L256.708 65.6153L256.919 65.8703C259.058 68.3528 261.08 70.9194 262.949 73.481C264.833 76.0677 266.63 78.7323 268.264 81.4459C269.899 84.1595 271.479 86.9623 272.911 89.8128C274.345 92.6646 275.704 95.6282 276.93 98.6572L277.043 98.9612L289.984 93.1646C291.545 96.9737 292.924 100.821 294.106 104.589C295.324 108.471 296.354 112.451 297.198 116.382C298.037 120.318 298.691 124.376 299.17 128.43C299.623 132.375 299.912 136.449 300.025 140.556H285.852L285.876 140.87C285.979 144.31 285.927 147.79 285.739 151.211L285.716 151.549H293.405L293.429 151.245C293.478 150.253 293.527 149.247 293.552 148.246H307.725V147.957C308.289 125.707 303.539 103.333 294.018 83.2575L293.881 82.9924L280.94 88.7676C277.156 80.9157 272.759 73.7071 267.499 66.7585L278.516 57.8175L278.339 57.5913C264.825 39.9492 247.108 25.5558 227.106 15.9564L226.845 15.8295L220.397 28.4955C212.536 24.7756 204.605 21.959 196.154 19.8735L199.094 5.97009L198.805 5.90602C177.247 0.728824 154.456 0.728824 132.883 5.90602L132.599 5.97009L135.539 19.8735C127.093 21.9339 119.167 24.7756 111.291 28.4955L104.848 15.8295L104.583 15.9564C84.5798 25.5658 66.8686 39.9492 53.3495 57.5913L53.1724 57.8175L64.1901 66.7585C58.9137 73.692 54.5166 80.9157 50.7478 88.7676L37.8079 82.9924L37.6697 83.2575C28.1495 103.343 23.4233 125.717 23.9635 147.957V148.256Z" fill="#085475"/>
<path d="M264.42 151.221L264.395 151.561H272.095L272.105 151.285C272.257 149.013 272.321 146.701 272.321 144.425C272.321 85.4919 224.543 37.5516 165.811 37.5516C107.079 37.5516 59.3047 85.4919 59.3047 144.425C59.3047 146.711 59.3637 148.998 59.5157 151.285L59.5409 151.561H67.2407L67.2156 151.221C67.0686 148.974 66.9907 146.677 66.9907 144.4C66.9907 137.682 67.6679 130.959 68.9882 124.412C70.2835 118.058 72.2169 111.776 74.7534 105.794C77.232 99.9142 80.3087 94.2508 83.8615 88.9605C87.3955 83.7104 91.4634 78.7732 95.9345 74.2882C100.396 69.802 105.332 65.719 110.558 62.1763C115.848 58.5945 121.491 55.5166 127.342 53.0291C133.309 50.4914 139.542 48.5442 145.901 47.2376C158.917 44.5642 172.711 44.5642 185.735 47.2376C192.07 48.5442 198.323 50.4814 204.29 53.0291C210.145 55.5166 215.798 58.5945 221.078 62.1763C226.314 65.719 231.226 69.802 235.698 74.2882C240.159 78.7732 244.242 83.7104 247.774 88.9605C251.342 94.2608 254.404 99.9292 256.883 105.794C259.405 111.776 261.339 118.043 262.649 124.412C263.978 130.943 264.655 137.652 264.655 144.4C264.67 146.677 264.582 148.974 264.42 151.221Z" fill="#085475"/>
<path d="M191.791 214.904C191.791 213.987 191.855 213.156 191.992 212.465C192.105 211.827 192.272 211.297 192.497 210.846C192.699 210.443 192.924 210.119 193.199 209.854C193.464 209.604 193.729 209.436 194.053 209.325C194.382 209.212 194.745 209.148 195.132 209.148C195.472 209.148 195.809 209.202 196.124 209.3C196.414 209.403 196.693 209.55 196.929 209.751C197.194 209.977 197.419 210.242 197.621 210.581C197.797 210.87 197.949 211.209 198.072 211.572C198.2 211.989 198.298 212.416 198.386 212.906C198.45 213.432 198.499 214.026 198.499 214.654C198.499 215.606 198.44 216.449 198.298 217.19C198.185 217.844 198.023 218.398 197.797 218.85C197.596 219.262 197.37 219.59 197.096 219.855C196.831 220.106 196.566 220.268 196.242 220.395C195.913 220.508 195.549 220.567 195.171 220.567C194.784 220.567 194.416 220.508 194.092 220.395C193.763 220.282 193.498 220.115 193.238 219.865C192.959 219.6 192.723 219.276 192.532 218.899C192.306 218.457 192.13 217.932 192.017 217.28C191.868 216.636 191.791 215.821 191.791 214.904ZM191.049 220.508C191.379 220.935 191.765 221.308 192.193 221.613C192.596 221.888 193.013 222.089 193.498 222.241C194.014 222.393 194.568 222.467 195.147 222.467C195.712 222.467 196.227 222.403 196.742 222.251C197.218 222.113 197.645 221.927 198.038 221.651C198.464 221.347 198.852 220.994 199.205 220.557C199.506 220.179 199.771 219.728 199.982 219.227C200.237 218.648 200.408 218.02 200.521 217.313C200.663 216.523 200.737 215.62 200.737 214.664C200.737 213.859 200.673 213.084 200.536 212.376C200.423 211.738 200.245 211.16 200.011 210.63C199.794 210.154 199.555 209.717 199.24 209.315C198.916 208.887 198.523 208.509 198.097 208.205C197.684 207.93 197.282 207.729 196.782 207.577C196.276 207.43 195.727 207.351 195.157 207.351C194.592 207.351 194.077 207.415 193.562 207.567C193.072 207.705 192.659 207.906 192.257 208.18C191.83 208.47 191.443 208.833 191.088 209.261C190.799 209.639 190.534 210.09 190.323 210.581C190.073 211.12 189.906 211.738 189.783 212.43C189.646 213.182 189.582 214.026 189.582 214.929C189.582 215.821 189.646 216.626 189.783 217.367C189.896 218.045 190.073 218.634 190.308 219.198C190.5 219.664 190.75 220.115 191.049 220.508Z" fill="#085475"/>
<path d="M134.041 209.663C133.879 209.777 133.663 209.88 133.398 209.968C133.124 210.066 132.8 210.13 132.383 210.194C131.956 210.258 131.465 210.307 130.926 210.317V211.852H134.832V222.152H137.069V207.666H135.323C135.224 208.005 135.097 208.319 134.945 208.608C134.806 208.863 134.67 209.074 134.507 209.251C134.371 209.413 134.203 209.55 134.041 209.663Z" fill="#085475"/>
<path d="M177.849 213.471C177.712 213.623 177.52 213.8 177.28 213.962C177.02 214.163 176.691 214.364 176.279 214.59C175.851 214.84 175.336 215.105 174.767 215.37C174.055 215.708 173.388 216.058 172.834 216.401C172.309 216.725 171.866 217.039 171.49 217.353C171.15 217.642 170.851 217.942 170.635 218.231C170.409 218.521 170.208 218.859 170.046 219.198C169.869 219.6 169.732 220.002 169.619 220.469C169.506 220.984 169.443 221.524 169.418 222.088H180.701V220.268H171.828C171.892 220.051 171.98 219.855 172.083 219.664C172.181 219.487 172.294 219.301 172.432 219.139C172.559 218.972 172.711 218.795 172.873 218.658C173.025 218.521 173.251 218.368 173.511 218.182C173.815 218.005 174.168 217.78 174.595 217.554C175.071 217.304 175.612 217.029 176.215 216.749C176.794 216.475 177.334 216.21 177.795 215.919C178.237 215.654 178.6 215.404 178.928 215.154C179.228 214.928 179.493 214.678 179.708 214.452C179.919 214.202 180.096 213.937 180.259 213.657C180.411 213.383 180.524 213.083 180.612 212.755C180.686 212.416 180.735 212.053 180.735 211.674C180.735 211.198 180.676 210.757 180.563 210.345C180.45 209.967 180.282 209.628 180.073 209.324C179.857 209.01 179.581 208.735 179.267 208.485C178.953 208.235 178.614 208.044 178.237 207.882C177.834 207.705 177.432 207.568 176.966 207.488C176.48 207.39 175.939 207.341 175.362 207.341C174.767 207.341 174.193 207.39 173.663 207.504C173.187 207.607 172.76 207.754 172.373 207.97C171.98 208.171 171.627 208.421 171.312 208.672C171.027 208.937 170.748 209.251 170.561 209.614C170.336 210.001 170.174 210.418 170.046 210.919C169.919 211.45 169.845 212.063 169.845 212.706H172.083C172.083 212.279 172.132 211.875 172.221 211.512C172.284 211.198 172.397 210.919 172.535 210.659C172.657 210.433 172.824 210.217 173.01 210.055C173.212 209.879 173.413 209.702 173.663 209.574C173.913 209.437 174.154 209.349 174.443 209.275C174.733 209.211 175.071 209.177 175.395 209.177C175.71 209.177 176.024 209.211 176.304 209.26C176.568 209.314 176.804 209.403 177.044 209.516C177.255 209.614 177.471 209.741 177.648 209.888C177.824 210.041 177.986 210.232 178.124 210.404C178.261 210.58 178.349 210.781 178.413 211.022C178.477 211.247 178.511 211.499 178.511 211.764C178.511 211.975 178.487 212.19 178.438 212.392C178.389 212.593 178.325 212.769 178.222 212.956C178.124 213.118 177.986 213.309 177.849 213.471Z" fill="#085475"/>
<path d="M158.05 212.353C158.05 212.692 158.011 212.996 157.937 213.27C157.873 213.535 157.761 213.761 157.623 213.987C157.486 214.203 157.324 214.374 157.147 214.551C156.946 214.713 156.73 214.865 156.505 215.002C156.279 215.115 156.029 215.219 155.754 215.268C155.473 215.332 155.159 215.371 154.845 215.371C154.531 215.371 154.217 215.342 153.942 215.268C153.678 215.205 153.427 215.115 153.202 214.994C152.976 214.881 152.75 214.713 152.574 214.526C152.397 214.365 152.245 214.163 152.122 213.948C151.985 213.722 151.897 213.486 151.833 213.207C151.769 212.907 151.72 212.593 151.72 212.255C151.72 211.902 151.743 211.602 151.833 211.298C151.897 211.033 151.995 210.783 152.122 210.556C152.26 210.345 152.397 210.154 152.588 209.977C152.76 209.806 152.976 209.639 153.216 209.526C153.442 209.413 153.692 209.315 153.957 209.251C154.232 209.187 154.546 209.148 154.86 209.148C155.174 209.148 155.489 209.178 155.764 209.261C156.043 209.325 156.269 209.428 156.519 209.565C156.745 209.688 156.985 209.879 157.157 210.08C157.334 210.283 157.496 210.494 157.638 210.708C157.775 210.935 157.864 211.185 157.927 211.45C158.011 211.74 158.05 212.039 158.05 212.353ZM153.702 220.509C153.427 220.421 153.177 220.308 152.961 220.141C152.736 219.979 152.549 219.778 152.397 219.543C152.22 219.278 152.083 218.948 152.009 218.585H149.771C149.845 219.149 149.987 219.641 150.159 220.092C150.326 220.494 150.551 220.823 150.816 221.122C151.076 221.412 151.357 221.638 151.705 221.839C152.073 222.04 152.461 222.202 152.902 222.305C153.403 222.418 153.967 222.482 154.57 222.482C155.198 222.482 155.788 222.393 156.343 222.226C156.868 222.079 157.309 221.853 157.761 221.549C158.227 221.225 158.653 220.808 158.992 220.333C159.306 219.906 159.582 219.425 159.811 218.884C160.063 218.295 160.264 217.658 160.386 216.927C160.538 216.137 160.602 215.268 160.602 214.34C160.602 213.486 160.538 212.692 160.386 211.965C160.264 211.323 160.071 210.757 159.847 210.257C159.636 209.806 159.37 209.403 159.08 209.06C158.752 208.687 158.364 208.373 157.937 208.108C157.525 207.858 157.083 207.681 156.593 207.544C156.068 207.406 155.489 207.328 154.909 207.328C154.32 207.328 153.756 207.392 153.251 207.505C152.775 207.617 152.358 207.77 151.946 207.981C151.558 208.196 151.205 208.461 150.89 208.746C150.6 209.05 150.326 209.389 150.124 209.742C149.909 210.105 149.747 210.494 149.634 210.935C149.521 211.401 149.457 211.887 149.457 212.417C149.457 212.932 149.521 213.423 149.634 213.859C149.747 214.276 149.899 214.639 150.11 214.979C150.311 215.308 150.551 215.607 150.852 215.872C151.14 216.147 151.493 216.387 151.872 216.573C152.235 216.775 152.623 216.902 153.05 217C153.501 217.103 154.016 217.167 154.546 217.167C155.149 217.167 155.728 217.079 156.254 216.941C156.73 216.789 157.147 216.613 157.496 216.338C157.898 216.058 158.212 215.695 158.492 215.283C158.379 216.024 158.227 216.701 158.065 217.28C157.913 217.82 157.775 218.271 157.584 218.649C157.437 218.987 157.26 219.288 157.069 219.502C156.868 219.754 156.642 219.969 156.392 220.131C156.141 220.293 155.901 220.406 155.625 220.494C155.337 220.583 155.022 220.632 154.683 220.632C154.345 220.632 154.006 220.583 153.702 220.509Z" fill="#085475"/>
<path d="M73.1758 165.957H75.9384V170.457H73.1758V165.957Z" fill="#085475"/>
<path d="M68.8008 165.957H71.5634V170.457H68.8008V165.957Z" fill="#085475"/>
<path d="M64.4453 165.957H67.2079V170.457H64.4453V165.957Z" fill="#085475"/>
<path d="M60.0586 165.957H62.8212V170.457H60.0586V165.957Z" fill="#085475"/>
<path d="M55.6836 165.957H58.4462V170.457H55.6836V165.957Z" fill="#085475"/>
<path d="M73.1758 172.176H75.9384V176.676H73.1758V172.176Z" fill="#085475"/>
<path d="M68.8008 172.176H71.5634V176.676H68.8008V172.176Z" fill="#085475"/>
<path d="M64.4453 172.176H67.2079V176.676H64.4453V172.176Z" fill="#085475"/>
<path d="M60.0586 172.176H62.8212V176.676H60.0586V172.176Z" fill="#085475"/>
<path d="M55.6836 172.176H58.4462V176.676H55.6836V172.176Z" fill="#085475"/>
<path d="M73.1758 178.398H75.9384V182.893H73.1758V178.398Z" fill="#085475"/>
<path d="M84.3672 167.978H87.1298V172.479H84.3672V167.978Z" fill="#085475"/>
<path d="M84.3672 174.211H87.1298V178.711H84.3672V174.211Z" fill="#085475"/>
<path d="M84.3672 180.419H87.1298V184.914H84.3672V180.419Z" fill="#085475"/>
<path d="M68.8008 178.398H71.5634V182.893H68.8008V178.398Z" fill="#085475"/>
<path d="M64.4453 178.398H67.2079V182.893H64.4453V178.398Z" fill="#085475"/>
<path d="M60.0586 178.398H62.8212V182.893H60.0586V178.398Z" fill="#085475"/>
<path d="M55.6836 178.398H58.4462V182.893H55.6836V178.398Z" fill="#085475"/>
<path d="M73.1758 184.625H75.9384V189.125H73.1758V184.625Z" fill="#085475"/>
<path d="M68.8008 184.625H71.5634V189.125H68.8008V184.625Z" fill="#085475"/>
<path d="M64.4453 184.625H67.2079V189.125H64.4453V184.625Z" fill="#085475"/>
<path d="M60.0586 184.625H62.8212V189.125H60.0586V184.625Z" fill="#085475"/>
<path d="M55.6836 184.625H58.4462V189.125H55.6836V184.625Z" fill="#085475"/>
<path d="M97.9375 157.727H100.7V162.227H97.9375V157.727Z" fill="#085475"/>
<path d="M99.3169 150.206C98.5518 150.206 97.9375 150.834 97.9375 151.585V155.506H100.701V151.585C100.686 150.809 100.073 150.206 99.3169 150.206Z" fill="#085475"/>
<path d="M97.9375 164.45H100.7V168.945H97.9375V164.45Z" fill="#085475"/>
<path d="M97.9375 171.173H100.7V175.668H97.9375V171.173Z" fill="#085475"/>
<path d="M97.9375 177.893H100.7V182.393H97.9375V177.893Z" fill="#085475"/>
<path d="M97.9375 184.625H100.7V189.125H97.9375V184.625Z" fill="#085475"/>
<path d="M102.973 157.727H105.735V162.227H102.973V157.727Z" fill="#085475"/>
<path d="M104.368 150.206C103.603 150.206 102.988 150.834 102.988 151.585V155.506H105.752V151.585C105.752 150.809 105.124 150.206 104.368 150.206Z" fill="#085475"/>
<path d="M102.973 164.45H105.735V168.945H102.973V164.45Z" fill="#085475"/>
<path d="M102.973 171.173H105.735V175.668H102.973V171.173Z" fill="#085475"/>
<path d="M102.973 177.893H105.735V182.393H102.973V177.893Z" fill="#085475"/>
<path d="M102.973 184.625H105.735V189.125H102.973V184.625Z" fill="#085475"/>
<path d="M108.035 157.727H110.798V162.227H108.035V157.727Z" fill="#085475"/>
<path d="M109.408 150.206C108.628 150.206 108.023 150.834 108.023 151.585V155.506H110.787V151.585C110.787 150.809 110.188 150.206 109.408 150.206Z" fill="#085475"/>
<path d="M108.035 164.45H110.798V168.945H108.035V164.45Z" fill="#085475"/>
<path d="M108.035 171.173H110.798V175.668H108.035V171.173Z" fill="#085475"/>
<path d="M108.035 177.893H110.798V182.393H108.035V177.893Z" fill="#085475"/>
<path d="M108.035 184.625H110.798V189.125H108.035V184.625Z" fill="#085475"/>
<path d="M113.07 157.727H115.838V162.227H113.07V157.727Z" fill="#085475"/>
<path d="M114.465 150.206C113.7 150.206 113.086 150.834 113.086 151.585V155.506H115.85V151.585C115.85 150.809 115.222 150.206 114.465 150.206Z" fill="#085475"/>
<path d="M113.07 164.45H115.838V168.945H113.07V164.45Z" fill="#085475"/>
<path d="M113.07 171.173H115.838V175.668H113.07V171.173Z" fill="#085475"/>
<path d="M113.07 177.893H115.838V182.393H113.07V177.893Z" fill="#085475"/>
<path d="M113.07 184.625H115.838V189.125H113.07V184.625Z" fill="#085475"/>
<path d="M118.121 157.727H120.889V162.227H118.121V157.727Z" fill="#085475"/>
<path d="M119.506 150.206C118.74 150.206 118.121 150.834 118.121 151.585V155.506H120.89V151.585C120.89 150.809 120.271 150.206 119.506 150.206Z" fill="#085475"/>
<path d="M118.121 164.45H120.889V168.945H118.121V164.45Z" fill="#085475"/>
<path d="M118.121 171.173H120.889V175.668H118.121V171.173Z" fill="#085475"/>
<path d="M118.121 177.893H120.889V182.393H118.121V177.893Z" fill="#085475"/>
<path d="M118.121 184.625H120.889V189.125H118.121V184.625Z" fill="#085475"/>
<path d="M123.188 157.727H125.95V162.227H123.188V157.727Z" fill="#085475"/>
<path d="M124.572 150.206C123.792 150.206 123.188 150.834 123.188 151.585V155.506H125.951V151.585C125.941 150.809 125.323 150.206 124.572 150.206Z" fill="#085475"/>
<path d="M123.188 164.45H125.95V168.945H123.188V164.45Z" fill="#085475"/>
<path d="M123.188 171.173H125.95V175.668H123.188V171.173Z" fill="#085475"/>
<path d="M123.188 177.893H125.95V182.393H123.188V177.893Z" fill="#085475"/>
<path d="M123.188 184.625H125.95V189.125H123.188V184.625Z" fill="#085475"/>
<path d="M128.227 157.727H130.989V162.227H128.227V157.727Z" fill="#085475"/>
<path d="M129.606 150.206C128.841 150.206 128.227 150.834 128.227 151.585V155.506H130.99V151.585C130.999 150.809 130.371 150.206 129.606 150.206Z" fill="#085475"/>
<path d="M128.227 164.45H130.989V168.945H128.227V164.45Z" fill="#085475"/>
<path d="M128.227 171.173H130.989V175.668H128.227V171.173Z" fill="#085475"/>
<path d="M128.227 177.893H130.989V182.393H128.227V177.893Z" fill="#085475"/>
<path d="M128.227 184.625H130.989V189.125H128.227V184.625Z" fill="#085475"/>
<path d="M133.277 157.727H136.04V162.227H133.277V157.727Z" fill="#085475"/>
<path d="M134.653 150.206C133.888 150.206 133.273 150.834 133.273 151.585V155.506H136.037V151.585C136.037 150.809 135.409 150.206 134.653 150.206Z" fill="#085475"/>
<path d="M133.277 164.45H136.04V168.945H133.277V164.45Z" fill="#085475"/>
<path d="M133.277 171.173H136.04V175.668H133.277V171.173Z" fill="#085475"/>
<path d="M133.277 177.893H136.04V182.393H133.277V177.893Z" fill="#085475"/>
<path d="M133.277 184.625H136.04V189.125H133.277V184.625Z" fill="#085475"/>
<path d="M138.324 157.727H141.087V162.227H138.324V157.727Z" fill="#085475"/>
<path d="M141.104 151.583C141.104 150.818 140.475 150.204 139.719 150.204C138.954 150.204 138.336 150.832 138.336 151.583V155.504H141.104V151.583Z" fill="#085475"/>
<path d="M138.324 164.45H141.087V168.945H138.324V164.45Z" fill="#085475"/>
<path d="M143.375 157.727H146.138V162.227H143.375V157.727Z" fill="#085475"/>
<path d="M146.138 151.583C146.138 150.818 145.509 150.204 144.758 150.204C143.988 150.204 143.375 150.832 143.375 151.583V155.504H146.138V151.583Z" fill="#085475"/>
<path d="M143.375 164.45H146.138V168.945H143.375V164.45Z" fill="#085475"/>
<path d="M33.0234 165.957H35.786V170.457H33.0234V165.957Z" fill="#085475"/>
<path d="M33.0234 172.176H35.786V176.676H33.0234V172.176Z" fill="#085475"/>
<path d="M33.0234 178.398H35.786V182.893H33.0234V178.398Z" fill="#085475"/>
<path d="M33.0234 184.625H35.786V189.125H33.0234V184.625Z" fill="#085475"/>
<path d="M39.0625 165.957H41.8301V170.457H39.0625V165.957Z" fill="#085475"/>
<path d="M39.0625 172.176H41.8301V176.676H39.0625V172.176Z" fill="#085475"/>
<path d="M39.0625 178.398H41.8301V182.893H39.0625V178.398Z" fill="#085475"/>
<path d="M39.0625 184.625H41.8301V189.125H39.0625V184.625Z" fill="#085475"/>
<path d="M43.3867 165.957H46.1493V170.457H43.3867V165.957Z" fill="#085475"/>
<path d="M43.3867 172.176H46.1493V176.676H43.3867V172.176Z" fill="#085475"/>
<path d="M43.3867 178.398H46.1493V182.893H43.3867V178.398Z" fill="#085475"/>
<path d="M43.3867 184.625H46.1493V189.125H43.3867V184.625Z" fill="#085475"/>
<path d="M26.7656 165.957H29.5282V170.457H26.7656V165.957Z" fill="#085475"/>
<path d="M22.4062 165.957H25.1688V170.457H22.4062V165.957Z" fill="#085475"/>
<path d="M18.0352 165.957H20.7978V170.457H18.0352V165.957Z" fill="#085475"/>
<path d="M13.6758 165.957H16.4384V170.457H13.6758V165.957Z" fill="#085475"/>
<path d="M9.28906 165.957H12.0517V170.457H9.28906V165.957Z" fill="#085475"/>
<path d="M26.7656 172.176H29.5282V176.676H26.7656V172.176Z" fill="#085475"/>
<path d="M22.4062 172.176H25.1688V176.676H22.4062V172.176Z" fill="#085475"/>
<path d="M18.0352 172.176H20.7978V176.676H18.0352V172.176Z" fill="#085475"/>
<path d="M13.6758 172.176H16.4384V176.676H13.6758V172.176Z" fill="#085475"/>
<path d="M9.28906 172.176H12.0517V176.676H9.28906V172.176Z" fill="#085475"/>
<path d="M26.7656 178.398H29.5282V182.893H26.7656V178.398Z" fill="#085475"/>
<path d="M22.4062 178.398H25.1688V182.893H22.4062V178.398Z" fill="#085475"/>
<path d="M18.0352 178.398H20.7978V182.893H18.0352V178.398Z" fill="#085475"/>
<path d="M13.6758 178.398H16.4384V182.893H13.6758V178.398Z" fill="#085475"/>
<path d="M9.28906 178.398H12.0517V182.893H9.28906V178.398Z" fill="#085475"/>
<path d="M26.7656 184.625H29.5282V189.125H26.7656V184.625Z" fill="#085475"/>
<path d="M22.4062 184.625H25.1688V189.125H22.4062V184.625Z" fill="#085475"/>
<path d="M18.0352 184.625H20.7978V189.125H18.0352V184.625Z" fill="#085475"/>
<path d="M13.6758 184.625H16.4384V189.125H13.6758V184.625Z" fill="#085475"/>
<path d="M9.28906 184.625H12.0517V189.125H9.28906V184.625Z" fill="#085475"/>
<path d="M49.418 165.957H52.1806V170.457H49.418V165.957Z" fill="#085475"/>
<path d="M49.418 172.176H52.1806V176.676H49.418V172.176Z" fill="#085475"/>
<path d="M49.418 178.398H52.1806V182.893H49.418V178.398Z" fill="#085475"/>
<path d="M49.418 184.625H52.1806V189.125H49.418V184.625Z" fill="#085475"/>
<path d="M154.329 141.789H154.344V137.279H151.566V141.789H154.329Z" fill="#085475"/>
<path d="M154.329 148.508H154.344V143.998H151.566V148.508H154.329Z" fill="#085475"/>
<path d="M154.329 155.23H154.344V150.72H151.566V155.23H154.329Z" fill="#085475"/>
<path d="M154.329 161.947H154.344V157.437H151.566V161.947H154.329Z" fill="#085475"/>
<path d="M154.329 168.672H154.344V164.162H151.566V168.672H154.329Z" fill="#085475"/>
<path d="M162.082 141.789L162.092 137.279H159.305V141.789H162.082Z" fill="#085475"/>
<path d="M162.082 148.508L162.092 143.998H159.305V148.508H162.082Z" fill="#085475"/>
<path d="M162.082 155.23L162.092 150.72H159.305V155.23H162.082Z" fill="#085475"/>
<path d="M162.082 161.947L162.092 157.437H159.305V161.947H162.082Z" fill="#085475"/>
<path d="M162.082 168.672L162.092 164.162H159.305V168.672H162.082Z" fill="#085475"/>
<path d="M162.895 109.562L162.91 105.067H160.133V109.562H162.895Z" fill="#085475"/>
<path d="M162.895 127.262L162.91 122.752H160.133V127.262H162.895Z" fill="#085475"/>
<path d="M162.895 115.52L162.91 111.009H160.133V115.52H162.895Z" fill="#085475"/>
<path d="M157.574 98.6329H161.946V98.9721H157.574V98.6329ZM159.443 94.5261H160.086V98.1329H159.443V94.5261ZM158.226 99.4621H161.318V100.404H161.794V99.4621H162.437V98.1568H160.563V97.8917L161.77 96.9357V94.0499L160.563 95.0022V94.0499H158.967V95.0022L157.75 94.0499V96.9357C157.75 96.9357 158.967 97.8917 158.967 97.8779V98.143H157.098V99.4483H157.736V100.39H158.212V99.4772H158.226V99.4621Z" fill="#085475"/>
<path d="M255.715 165.957H258.477V170.457H255.715V165.957Z" fill="#085475"/>
<path d="M260.082 165.957H262.85V170.457H260.082V165.957Z" fill="#085475"/>
<path d="M264.445 165.957H267.208V170.457H264.445V165.957Z" fill="#085475"/>
<path d="M268.844 165.957H271.606V170.457H268.844V165.957Z" fill="#085475"/>
<path d="M273.199 165.957H275.962V170.457H273.199V165.957Z" fill="#085475"/>
<path d="M255.715 172.176H258.477V176.676H255.715V172.176Z" fill="#085475"/>
<path d="M260.082 172.176H262.85V176.676H260.082V172.176Z" fill="#085475"/>
<path d="M264.445 172.176H267.208V176.676H264.445V172.176Z" fill="#085475"/>
<path d="M268.844 172.176H271.606V176.676H268.844V172.176Z" fill="#085475"/>
<path d="M273.199 172.176H275.962V176.676H273.199V172.176Z" fill="#085475"/>
<path d="M255.715 178.398H258.477V182.893H255.715V178.398Z" fill="#085475"/>
<path d="M244.523 167.978H247.286V172.479H244.523V167.978Z" fill="#085475"/>
<path d="M244.523 174.211H247.286V178.711H244.523V174.211Z" fill="#085475"/>
<path d="M244.523 180.419H247.286V184.914H244.523V180.419Z" fill="#085475"/>
<path d="M260.082 178.398H262.85V182.893H260.082V178.398Z" fill="#085475"/>
<path d="M264.445 178.398H267.208V182.893H264.445V178.398Z" fill="#085475"/>
<path d="M268.844 178.398H271.606V182.893H268.844V178.398Z" fill="#085475"/>
<path d="M273.199 178.398H275.962V182.893H273.199V178.398Z" fill="#085475"/>
<path d="M255.715 184.625H258.477V189.125H255.715V184.625Z" fill="#085475"/>
<path d="M260.082 184.625H262.85V189.125H260.082V184.625Z" fill="#085475"/>
<path d="M264.445 184.625H267.208V189.125H264.445V184.625Z" fill="#085475"/>
<path d="M268.844 184.625H271.606V189.125H268.844V184.625Z" fill="#085475"/>
<path d="M273.199 184.625H275.962V189.125H273.199V184.625Z" fill="#085475"/>
<path d="M230.953 157.727H233.716V162.227H230.953V157.727Z" fill="#085475"/>
<path d="M232.345 150.206C233.126 150.206 233.73 150.834 233.73 151.585V155.506H230.961V151.585C230.952 150.809 231.58 150.206 232.345 150.206Z" fill="#085475"/>
<path d="M230.953 164.45H233.716V168.945H230.953V164.45Z" fill="#085475"/>
<path d="M230.953 171.173H233.716V175.668H230.953V171.173Z" fill="#085475"/>
<path d="M230.953 177.893H233.716V182.393H230.953V177.893Z" fill="#085475"/>
<path d="M230.953 184.625H233.716V189.125H230.953V184.625Z" fill="#085475"/>
<path d="M225.914 157.727H228.677V162.227H225.914V157.727Z" fill="#085475"/>
<path d="M227.299 150.206C228.064 150.206 228.678 150.834 228.678 151.585V155.506H225.914V151.585C225.914 150.809 226.533 150.206 227.299 150.206Z" fill="#085475"/>
<path d="M225.914 164.45H228.677V168.945H225.914V164.45Z" fill="#085475"/>
<path d="M225.914 171.173H228.677V175.668H225.914V171.173Z" fill="#085475"/>
<path d="M225.914 177.893H228.677V182.393H225.914V177.893Z" fill="#085475"/>
<path d="M225.914 184.625H228.677V189.125H225.914V184.625Z" fill="#085475"/>
<path d="M220.863 157.727H223.626V162.227H220.863V157.727Z" fill="#085475"/>
<path d="M222.248 150.206C223.013 150.206 223.627 150.834 223.627 151.585V155.506H220.863V151.585C220.863 150.809 221.491 150.206 222.248 150.206Z" fill="#085475"/>
<path d="M220.863 164.45H223.626V168.945H220.863V164.45Z" fill="#085475"/>
<path d="M220.863 171.173H223.626V175.668H220.863V171.173Z" fill="#085475"/>
<path d="M220.863 177.893H223.626V182.393H220.863V177.893Z" fill="#085475"/>
<path d="M220.863 184.625H223.626V189.125H220.863V184.625Z" fill="#085475"/>
<path d="M215.812 157.727H218.575V162.227H215.812V157.727Z" fill="#085475"/>
<path d="M217.197 150.206C217.972 150.206 218.576 150.834 218.576 151.585V155.506H215.812V151.585C215.812 150.809 216.427 150.206 217.197 150.206Z" fill="#085475"/>
<path d="M215.812 164.45H218.575V168.945H215.812V164.45Z" fill="#085475"/>
<path d="M215.812 171.173H218.575V175.668H215.812V171.173Z" fill="#085475"/>
<path d="M215.812 177.893H218.575V182.393H215.812V177.893Z" fill="#085475"/>
<path d="M215.812 184.625H218.575V189.125H215.812V184.625Z" fill="#085475"/>
<path d="M210.766 157.727H213.528V162.227H210.766V157.727Z" fill="#085475"/>
<path d="M212.141 150.206C212.911 150.206 213.526 150.834 213.526 151.585V155.506H210.762V151.585C210.762 150.809 211.39 150.206 212.141 150.206Z" fill="#085475"/>
<path d="M210.766 164.45H213.528V168.945H210.766V164.45Z" fill="#085475"/>
<path d="M210.766 171.173H213.528V175.668H210.766V171.173Z" fill="#085475"/>
<path d="M210.766 177.893H213.528V182.393H210.766V177.893Z" fill="#085475"/>
<path d="M210.766 184.625H213.528V189.125H210.766V184.625Z" fill="#085475"/>
<path d="M205.699 157.727H208.462V162.227H205.699V157.727Z" fill="#085475"/>
<path d="M207.108 150.206C207.873 150.206 208.492 150.834 208.492 151.585V155.506H205.723V151.585C205.699 150.809 206.328 150.206 207.108 150.206Z" fill="#085475"/>
<path d="M205.699 164.45H208.462V168.945H205.699V164.45Z" fill="#085475"/>
<path d="M205.699 171.173H208.462V175.668H205.699V171.173Z" fill="#085475"/>
<path d="M205.699 177.893H208.462V182.393H205.699V177.893Z" fill="#085475"/>
<path d="M205.699 184.625H208.462V189.125H205.699V184.625Z" fill="#085475"/>
<path d="M200.664 157.727H203.427V162.227H200.664V157.727Z" fill="#085475"/>
<path d="M202.043 150.206C202.809 150.206 203.428 150.834 203.428 151.585V155.506H200.664V151.585C200.664 150.809 201.292 150.206 202.043 150.206Z" fill="#085475"/>
<path d="M200.664 164.45H203.427V168.945H200.664V164.45Z" fill="#085475"/>
<path d="M200.664 171.173H203.427V175.668H200.664V171.173Z" fill="#085475"/>
<path d="M200.664 177.893H203.427V182.393H200.664V177.893Z" fill="#085475"/>
<path d="M200.664 184.625H203.427V189.125H200.664V184.625Z" fill="#085475"/>
<path d="M195.613 157.727H198.376V162.227H195.613V157.727Z" fill="#085475"/>
<path d="M197.01 150.206C197.775 150.206 198.389 150.834 198.389 151.585V155.506H195.625V151.585C195.616 150.809 196.229 150.206 197.01 150.206Z" fill="#085475"/>
<path d="M195.613 164.45H198.376V168.945H195.613V164.45Z" fill="#085475"/>
<path d="M195.613 171.173H198.376V175.668H195.613V171.173Z" fill="#085475"/>
<path d="M195.613 177.893H198.376V182.393H195.613V177.893Z" fill="#085475"/>
<path d="M195.613 184.625H198.376V189.125H195.613V184.625Z" fill="#085475"/>
<path d="M190.574 157.727H193.337V162.227H190.574V157.727Z" fill="#085475"/>
<path d="M190.574 151.583C190.574 150.818 191.202 150.204 191.959 150.204C192.709 150.204 193.337 150.832 193.337 151.583V155.504H190.574V151.583Z" fill="#085475"/>
<path d="M190.574 164.45H193.337V168.945H190.574V164.45Z" fill="#085475"/>
<path d="M185.512 157.727H188.274V162.227H185.512V157.727Z" fill="#085475"/>
<path d="M185.512 151.583C185.512 150.818 186.14 150.204 186.896 150.204C187.661 150.204 188.274 150.832 188.274 151.583V155.504H185.512V151.583Z" fill="#085475"/>
<path d="M185.512 164.45H188.274V168.945H185.512V164.45Z" fill="#085475"/>
<path d="M295.863 165.957H298.631V170.457H295.863V165.957Z" fill="#085475"/>
<path d="M295.863 172.176H298.631V176.676H295.863V172.176Z" fill="#085475"/>
<path d="M295.863 178.398H298.631V182.893H295.863V178.398Z" fill="#085475"/>
<path d="M295.863 184.625H298.631V189.125H295.863V184.625Z" fill="#085475"/>
<path d="M289.82 165.957H292.583V170.457H289.82V165.957Z" fill="#085475"/>
<path d="M289.82 172.176H292.583V176.676H289.82V172.176Z" fill="#085475"/>
<path d="M289.82 178.398H292.583V182.893H289.82V178.398Z" fill="#085475"/>
<path d="M289.82 184.625H292.583V189.125H289.82V184.625Z" fill="#085475"/>
<path d="M285.5 165.957H288.268V170.457H285.5V165.957Z" fill="#085475"/>
<path d="M285.5 172.176H288.268V176.676H285.5V172.176Z" fill="#085475"/>
<path d="M285.5 178.398H288.268V182.893H285.5V178.398Z" fill="#085475"/>
<path d="M285.5 184.625H288.268V189.125H285.5V184.625Z" fill="#085475"/>
<path d="M302.121 165.957H304.884V170.457H302.121V165.957Z" fill="#085475"/>
<path d="M306.492 165.957H309.255V170.457H306.492V165.957Z" fill="#085475"/>
<path d="M310.852 165.957H313.619V170.457H310.852V165.957Z" fill="#085475"/>
<path d="M315.223 165.957H317.985V170.457H315.223V165.957Z" fill="#085475"/>
<path d="M319.609 165.957H322.372V170.457H319.609V165.957Z" fill="#085475"/>
<path d="M302.121 172.176H304.884V176.676H302.121V172.176Z" fill="#085475"/>
<path d="M306.492 172.176H309.255V176.676H306.492V172.176Z" fill="#085475"/>
<path d="M310.852 172.176H313.619V176.676H310.852V172.176Z" fill="#085475"/>
<path d="M315.223 172.176H317.985V176.676H315.223V172.176Z" fill="#085475"/>
<path d="M319.609 172.176H322.372V176.676H319.609V172.176Z" fill="#085475"/>
<path d="M302.121 178.398H304.884V182.893H302.121V178.398Z" fill="#085475"/>
<path d="M306.492 178.398H309.255V182.893H306.492V178.398Z" fill="#085475"/>
<path d="M310.852 178.398H313.619V182.893H310.852V178.398Z" fill="#085475"/>
<path d="M315.223 178.398H317.985V182.893H315.223V178.398Z" fill="#085475"/>
<path d="M319.609 178.398H322.372V182.893H319.609V178.398Z" fill="#085475"/>
<path d="M302.121 184.625H304.884V189.125H302.121V184.625Z" fill="#085475"/>
<path d="M306.492 184.625H309.255V189.125H306.492V184.625Z" fill="#085475"/>
<path d="M310.852 184.625H313.619V189.125H310.852V184.625Z" fill="#085475"/>
<path d="M315.223 184.625H317.985V189.125H315.223V184.625Z" fill="#085475"/>
<path d="M319.609 184.625H322.372V189.125H319.609V184.625Z" fill="#085475"/>
<path d="M279.48 165.957H282.243V170.457H279.48V165.957Z" fill="#085475"/>
<path d="M279.48 172.176H282.243V176.676H279.48V172.176Z" fill="#085475"/>
<path d="M279.48 178.398H282.243V182.893H279.48V178.398Z" fill="#085475"/>
<path d="M279.48 184.625H282.243V189.125H279.48V184.625Z" fill="#085475"/>
<path d="M177.318 141.789H177.293V137.279H180.081V141.789H177.318Z" fill="#085475"/>
<path d="M177.318 148.508H177.293V143.998H180.081V148.508H177.318Z" fill="#085475"/>
<path d="M177.318 155.23H177.293V150.72H180.081V155.23H177.318Z" fill="#085475"/>
<path d="M177.318 161.947H177.293V157.437H180.081V161.947H177.318Z" fill="#085475"/>
<path d="M177.318 168.672H177.293V164.162H180.081V168.672H177.318Z" fill="#085475"/>
<path d="M167.204 137.263H164.441V141.773H167.219V137.263H167.204Z" fill="#085475"/>
<path d="M167.204 143.998H164.441V148.508H167.219V143.998H167.204Z" fill="#085475"/>
<path d="M167.204 150.705H164.441V155.215H167.219V150.705H167.204Z" fill="#085475"/>
<path d="M167.204 157.429H164.441V161.939H167.219V157.429H167.204Z" fill="#085475"/>
<path d="M167.204 164.162H164.441V168.672H167.219V164.162H167.204Z" fill="#085475"/>
<path d="M169.58 141.789H169.555V137.279H172.332V141.789H169.58Z" fill="#085475"/>
<path d="M169.58 148.508H169.555V143.998H172.332V148.508H169.58Z" fill="#085475"/>
<path d="M169.58 155.23H169.555V150.72H172.332V155.23H169.58Z" fill="#085475"/>
<path d="M169.58 161.947H169.555V157.437H172.332V161.947H169.58Z" fill="#085475"/>
<path d="M169.58 168.672H169.555V164.162H172.332V168.672H169.58Z" fill="#085475"/>
<path d="M178.566 176.299H153.097V173.384H178.566V176.299ZM179.042 172.907H152.621V176.773H179.042V172.907Z" fill="#085475"/>
<path d="M167.204 105.051H164.441V109.551H167.219V105.051H167.204Z" fill="#085475"/>
<path d="M168.75 105.066H171.528V109.561H168.75V105.066Z" fill="#085475"/>
<path d="M167.204 122.754H164.441V127.264H167.219V122.754H167.204Z" fill="#085475"/>
<path d="M168.75 122.752H171.528V127.262H168.75V122.752Z" fill="#085475"/>
<path d="M167.204 111.009H164.441V115.52H167.219V111.009H167.204Z" fill="#085475"/>
<path d="M168.75 111.009H171.528V115.52H168.75V111.009Z" fill="#085475"/>
<path d="M169.71 98.6315H174.082V98.9707H169.71V98.6315ZM172.223 98.1415H171.579V94.5398H172.223V98.1415ZM173.44 100.389H173.916V99.4468H174.558V98.1554H172.689V97.8903L173.906 96.9481V94.0724L172.689 95.0247V94.0724H171.089V95.0247L169.872 94.0724V96.9481L171.089 97.9054V98.1654H169.219V99.4757H169.862V100.418H170.338V99.4757H173.43V100.389H173.44Z" fill="#085475"/>
<path d="M164.745 62.1015V62.1266L164.088 64.1719L165.834 62.9018L167.597 64.1719L166.915 62.1266V62.1015L168.661 60.8301H166.517L165.834 58.7698L165.182 60.8301H163.008L164.745 62.1015Z" fill="#085475"/>
<path d="M328.605 163.985H300.486V163.122H277.646V163.985H249.621V162.929L276.302 162.954V161.688H302.184V162.954L328.605 162.929V163.985ZM324.458 164.476H327.712V191.147H324.458V164.476ZM300.476 164.476H323.982V191.147H300.476V164.476ZM294.494 163.596H300.011V191.147H294.494V163.596ZM284.056 163.596H294.018V191.147H284.056V163.596ZM278.114 163.596H283.581V191.147H278.114V163.596ZM254.042 164.476H277.646V191.147H254.042V164.476ZM250.475 164.476H253.567V191.147H250.475V164.476ZM328.605 191.623V193.145H248.379C248.702 192.717 248.944 192.187 249.008 191.623H328.605ZM328.605 195.608H249.268L248.236 193.611H328.605V195.608ZM245.901 188.094C244.207 188.094 242.824 189.45 242.784 191.147H241.833L241.784 165.82H250.008V191.147H249.042C248.967 189.464 247.584 188.094 245.901 188.094ZM243.427 193.145H193.264V191.986H192.557V191.623H242.799C242.873 192.177 243.089 192.702 243.427 193.145ZM242.696 195.608H214.331C210.675 194.44 205.297 193.812 203.202 193.611H243.751L242.696 195.608ZM216.378 197.503C216.972 197.841 217.197 198.445 216.908 198.862C216.618 199.274 215.887 199.338 215.312 199.009C214.72 198.685 214.483 198.067 214.782 197.668C215.088 197.243 215.789 197.179 216.378 197.503ZM197.234 195.608H186.379V193.611H191.389C193.602 193.95 195.664 194.676 197.234 195.608ZM200.046 198.219H191.443V196.098H197.984C198.927 196.751 199.644 197.478 200.046 198.219ZM200.424 199.426C200.438 199.676 200.375 199.902 200.36 200.152C200.335 200.368 200.375 200.545 200.438 200.756L195.953 200.77V198.695H200.272C200.36 198.925 200.399 199.161 200.424 199.426ZM195.472 200.77H136.176V198.695H195.472V200.77ZM135.71 200.77L131.23 200.756C131.279 200.554 131.328 200.383 131.313 200.152C131.289 199.902 131.23 199.676 131.254 199.426C131.279 199.176 131.313 198.935 131.401 198.685H135.71V200.77ZM133.678 196.084H140.21V198.209H131.603C132.02 197.478 132.721 196.751 133.678 196.084ZM140.259 193.621H145.274V195.618H134.419C136.014 194.676 138.06 193.95 140.259 193.621ZM88.2355 193.145C88.5646 192.717 88.7895 192.187 88.8636 191.623H139.105V191.986H138.399V193.145H88.2355ZM117.346 195.608H88.9516L87.9214 193.611H128.476C126.367 193.812 121.002 194.44 117.346 195.608ZM116.35 198.999C115.761 199.323 115.045 199.264 114.755 198.847C114.466 198.435 114.696 197.831 115.285 197.493C115.874 197.163 116.59 197.228 116.88 197.64C117.169 198.057 116.944 198.67 116.35 198.999ZM85.748 188.094C84.0646 188.094 82.6852 189.45 82.6312 191.147H81.6651V165.82H89.8938L89.8448 191.147H88.8888C88.8147 189.464 87.4453 188.094 85.748 188.094ZM83.2744 193.145H3.0573V191.623H82.6462C82.7103 192.177 82.9352 192.702 83.2744 193.145ZM82.3962 195.608H3.0573V193.611H83.4365L82.3962 195.608ZM7.20433 191.147H3.95052V164.476H7.20433V191.147ZM31.177 191.147H7.65533V164.476H31.177V191.147ZM37.1695 191.147H31.6531V163.596H37.1695V191.147ZM47.6069 191.147H37.6444V163.596H47.6069V191.147ZM53.5353 191.147H48.0729V163.596H53.5353V191.147ZM77.621 191.147H54.0165V164.476H77.621V191.147ZM81.1889 191.147H78.0972V164.476H81.1889V191.147ZM3.0573 163.985V162.929L29.4785 162.954V161.688H55.3607V162.954L82.042 162.929V163.985H54.0165V163.122H31.177V163.985H3.0573ZM95.223 152.001V191.132H90.2971L90.385 152.001H95.223ZM90.385 150.18H95.2092V151.01H90.385V150.18ZM87.5734 147.452H148.842V148.973H89.9189L87.5734 147.452ZM150.358 173.657H138.398V172.906H150.358V173.657ZM148.989 129.942H155.873V130.467H148.989V129.942ZM153.2 120.367H178.454V121.245H153.2V120.367ZM151.905 119.376H179.759L178.866 119.901H152.798L151.905 119.376ZM151.542 118.37H180.122V118.895H151.542V118.37ZM157.872 117.904H152.587V117.026H157.872V117.904ZM151.807 116.009H158.691V116.534H151.807V116.009ZM154.907 111.034H155.55V115.529H154.907V111.034ZM157.96 102.151H173.703V102.98H157.96V102.151ZM157.435 101.685L157.18 101.523H174.469L174.218 101.685H157.435ZM156.679 100.856H174.969V101.018H156.679V100.856ZM162.848 97.715H163.377L164.216 100.39H163.966C163.564 99.4374 162.848 97.715 162.848 97.715ZM163.79 95.9185L164.04 95.9335L163.436 97.3519H162.921L163.79 95.9185ZM163.265 94.3632H168.373L167.824 95.3154H167.671L167.833 94.6772H167.117L166.945 95.3154H166.43L166.592 94.6622H165.047L165.209 95.3154H164.692L164.522 94.6772H163.804L163.966 95.3154H163.814L163.265 94.3632ZM164.432 93.3079C164.895 93.333 166.779 93.333 167.23 93.3079C167.686 93.3079 167.946 93.4699 168.172 93.936H163.49C163.701 93.4699 163.991 93.3079 164.432 93.3079ZM163.564 91.5956H163.953V91.9976H163.564V91.5956ZM164.177 91.5956H164.569V91.9976H164.177V91.5956ZM164.796 91.5956H165.184V91.9976H164.796V91.5956ZM165.473 91.5956H166.175V91.9976H165.473V91.5956ZM166.479 91.5956H166.881V91.9976H166.479V91.5956ZM167.068 91.5956H167.46V91.9976H167.068V91.5956ZM167.985 92.4536C167.946 92.7049 167.662 92.8908 167.662 92.8908H163.966C163.966 92.8908 163.677 92.6898 163.638 92.4536H167.985ZM167.696 91.5956H168.088V91.9976H167.696V91.5956ZM168.752 97.3268H168.236L167.632 95.9084L167.887 95.8795L168.752 97.3268ZM167.431 97.6898H167.976L167.205 100.39H166.906C167.019 99.7364 167.446 97.6898 167.431 97.6898ZM166.528 97.6898H167.181L166.69 100.38H166.278L166.528 97.6898ZM167.083 95.3154L167.22 94.7903H167.686L167.544 95.3154H167.083ZM167.421 95.9185L167.936 97.3368H167.397L166.955 95.9185H167.421ZM166.705 95.9185L167.117 97.3368H166.489L166.239 95.9185H166.705ZM165.15 97.3519H164.522L164.934 95.9335H165.375L165.15 97.3519ZM164.468 97.6898H165.12L165.375 100.38H164.958L164.468 97.6898ZM164.216 97.6898C164.192 97.6898 164.62 99.7364 164.747 100.38H164.442L163.677 97.6898H164.216ZM164.105 95.3154L163.966 94.7903H164.432L164.571 95.3154H164.105ZM164.241 95.9185H164.718L164.28 97.3368H163.741L164.241 95.9185ZM165.361 95.3154L165.248 94.7903H166.415L166.303 95.3154H165.361ZM166.214 97.6898L166.077 100.38H165.562L165.434 97.6898H166.214ZM165.424 97.3268L165.601 95.9185H166.013L166.19 97.3268H165.424ZM167.686 100.39H167.431L168.275 97.715H168.801C168.791 97.715 168.088 99.4374 167.686 100.39ZM158.652 115.529V103.456H173.026V115.529H172.536V117.01H173.325V117.894H158.362V117.01H159.152V115.529H158.652ZM179.052 117.904H173.767V117.026H179.052V117.904ZM179.857 116.549H172.973V116.019H179.857V116.549ZM176.102 111.034H176.74V115.529H176.102V111.034ZM182.659 130.467H175.774V129.942H182.659V130.467ZM193.249 173.657H181.289V172.906H193.249V173.657ZM189.269 179.035H192.837V179.815H189.269V179.035ZM192.081 191.986H190.045V180.291H192.081V191.986ZM189.269 192.379H192.837V193.16H189.269V192.379ZM156.581 135.281V170.467H149.784V172.063H150.373V172.455H149.367V135.267L156.581 135.281ZM181.289 172.053H181.879V170.457H175.082V135.281H182.306V172.455H181.305L181.289 172.053ZM157.057 170.457V135.281H174.596V170.467L157.057 170.457ZM180.813 177.804H150.839V172.053H180.813V177.804ZM150.236 170.933H181.404V171.571H150.236V170.933ZM193.376 177.794H181.305V177.514H193.376V177.794ZM192.081 177.039H181.289V174.138H192.081V177.039ZM176.578 130.919H181.869V131.763H176.578V130.919ZM176.102 130.943V131.787H173.487V121.747H177.595V129.462H175.312V130.943H176.102ZM171.504 128.622H168.726V131.787H167.205V128.622H164.432V131.787H162.911V128.622H160.148V131.787H158.652V121.747H173.026V131.787H171.529L171.504 128.622ZM154.054 129.452V121.737H158.161V131.772H155.55V130.933H156.341V129.452H154.054ZM149.794 130.919H155.084V131.763H149.794V130.919ZM182.306 134.801H149.357V134.276H182.306V134.801ZM138.817 179.035H142.384V179.815H138.817V179.035ZM139.567 180.291H141.603V191.986H139.567V180.291ZM142.384 193.16H138.817V192.379H142.384V193.16ZM139.567 174.138H150.358V177.039H139.567V174.138ZM150.358 177.794H138.286V177.514H150.358V177.794ZM139.09 174.148V177.053H137.81V179.026H138.31V180.283H139.09V191.132H95.6992V149.449H148.842V172.455H137.923V174.163H139.09V174.148ZM138.286 178.28H193.378V178.56H138.286V178.28ZM185.928 196.084H190.977V198.209H140.686V196.084H185.928ZM182.747 193.16H179.179V192.379H182.747V193.16ZM181.982 191.986H179.945V180.291H181.982V191.986ZM179.194 179.035H182.762V179.815H179.194V179.035ZM172.647 193.16H169.079V192.379H172.647V193.16ZM171.892 191.986H169.861V180.291H171.892V191.986ZM169.09 179.035H172.657V179.815H169.09V179.035ZM162.573 193.16H158.99V192.379H162.573V193.16ZM161.807 191.986H159.77V180.291H161.807V191.986ZM158.99 179.035H162.558V179.815H158.99V179.035ZM185.928 195.618H145.751V193.621H185.928V195.618ZM152.469 193.16H148.901V192.379H152.469V193.16ZM151.704 191.986H149.672V180.291H151.704V191.986ZM148.916 179.035H152.484V179.815H148.916V179.035ZM182.796 149.449H235.938V191.147H192.532V180.291H193.298V179.035H193.813V177.063H192.532V174.163H193.7V172.455H182.787V149.449H182.796ZM236.445 150.18H241.269V151.01H236.445V150.18ZM241.268 152.001L241.352 191.132H236.43V152.001H241.268ZM182.796 147.452H244.065L241.72 148.973H182.787L182.796 147.452ZM201.518 199.789C201.793 199.524 202.268 199.338 202.799 199.338C203.663 199.338 204.355 199.804 204.355 200.383C204.355 200.417 204.345 200.432 204.345 200.442C204.291 200.981 203.614 201.408 202.785 201.408C201.905 201.408 201.228 200.947 201.228 200.383C201.228 200.167 201.341 199.98 201.518 199.789ZM128.864 201.424C128.049 201.424 127.372 200.996 127.309 200.456C127.309 200.442 127.294 200.407 127.294 200.392C127.294 199.814 128 199.352 128.854 199.352C129.379 199.352 129.855 199.524 130.136 199.804C130.311 199.966 130.409 200.181 130.409 200.392C130.424 200.957 129.718 201.424 128.864 201.424ZM318.089 159.361C318.089 159.361 316.905 159.111 315.689 159.111H303.971C303.971 159.111 303.19 159.122 302.046 158.748C300.903 158.37 289.258 154.498 289.258 154.498C289.258 154.498 277.612 158.38 276.469 158.748C275.326 159.122 274.546 159.111 274.546 159.111H262.827C261.62 159.111 260.426 159.361 260.426 159.361L248.766 161.889V162.944H249.178V164.049H241.808L241.769 149.576V149.537L244.722 147.604V146.26C244.722 146.26 236.592 144.954 230.977 144.061C225.363 143.168 222.536 143.295 222.536 143.295H182.787V134.261H183.93L185.524 133.308V131.772H182.306V130.933H183.101V129.452H178.036V121.737H178.89V120.392H178.993L180.588 119.435V117.904H179.508V117.026H180.323V115.543H177.206L178.89 113.497V110.617L177.206 112.667V110.582H175.612V112.667L173.944 110.617V113.497L175.612 115.543H173.478V103.471H174.218V102.176H174.331L175.474 101.484V100.39H168.074C168.123 100.253 168.172 100.115 168.211 100.027C168.438 99.4864 168.677 98.9223 168.919 98.3821L168.927 98.3582C168.992 98.2062 169.066 98.0542 169.13 97.9059C169.282 97.5919 169.267 97.3268 169.066 97.0228C168.752 96.5466 168.461 96.0567 168.147 95.5064C168.324 95.2175 168.515 94.9034 168.726 94.5994C168.953 94.2602 168.943 94.024 168.662 93.7099C168.502 93.5441 168.34 93.3669 168.139 93.1408C168.726 92.5667 168.726 91.8757 168.605 91.0553H166.69L166.116 65.4533L167.421 65.0902L167.294 64.7522C167.446 64.663 167.583 64.5852 167.735 64.4872L167.961 64.7623L168.865 63.8439L168.59 63.6178C168.688 63.4708 168.767 63.3289 168.84 63.1819L169.179 63.2949L169.507 62.0386L169.144 61.9746C169.154 61.8125 169.154 61.6215 169.144 61.4595L169.507 61.3954L169.169 60.1391L168.829 60.2761L168.502 60.3891C168.59 60.5663 168.662 60.7572 168.716 60.9582C169.169 62.5537 168.226 64.212 166.631 64.6492C166.366 64.712 166.101 64.7522 165.837 64.7522C165.576 64.7522 165.312 64.7271 165.047 64.6492C163.451 64.212 162.519 62.5638 162.96 60.9582C163.01 60.7572 163.098 60.5801 163.176 60.3891L162.848 60.2761L162.509 60.1391L162.156 61.3954L162.519 61.4595C162.509 61.6215 162.509 61.7974 162.519 61.9746L162.156 62.0386L162.485 63.2949L162.833 63.1819C162.897 63.3289 163 63.4708 163.088 63.6178L162.808 63.8439L163.716 64.7623L163.942 64.4872C164.079 64.5852 164.216 64.663 164.378 64.7522L164.241 65.0902L165.562 65.4533L164.983 91.0553H163.073C162.936 91.8996 162.936 92.5918 163.525 93.1408C163.324 93.3569 163.162 93.5441 163 93.7099C162.71 94.0102 162.71 94.2752 162.936 94.5994C163.147 94.8783 163.314 95.1923 163.515 95.5064C163.186 96.0315 162.911 96.5466 162.597 97.0228C162.396 97.3268 162.396 97.5919 162.534 97.9059C162.597 98.0542 162.671 98.1911 162.735 98.3582L162.749 98.3821C163 98.9223 163.225 99.4763 163.451 100.027C163.476 100.115 163.525 100.253 163.588 100.39H156.153V101.459L157.298 102.151H157.41V103.456H158.151V115.529H156.011L157.685 113.483V110.607L156.011 112.654V110.558H154.417V112.654L152.734 110.607V113.483L154.417 115.529H151.3V117.01H152.096V117.894H151.016V119.425L152.611 120.377H152.709V121.737H153.563V129.452H148.513V130.933H149.303V131.772H146.089V133.308L147.683 134.261H148.827V143.295H109.126C109.126 143.295 106.329 143.182 100.685 144.075C95.071 144.963 86.9453 146.273 86.9453 146.273V147.619L89.8938 149.552V149.576L89.8549 164.049H82.4842V162.944H82.8962V161.889L71.2416 159.377C71.2416 159.377 70.0581 159.122 68.8408 159.122H57.117C57.117 159.122 56.3369 159.15 55.1936 158.758C54.0504 158.38 42.4058 154.513 42.4058 154.513C42.4058 154.513 30.7599 158.41 29.6167 158.758C28.4634 159.137 27.697 159.122 27.697 159.122H15.9733C14.7672 159.122 13.5738 159.377 13.5738 159.377L1.91406 161.889V162.944H2.62134V164.476H3.51334V191.147H2.58116V196.084H82.6701L84.0156 193.483L84.1035 193.322C83.4754 192.83 83.0872 192.089 83.0872 191.235C83.0872 189.764 84.2656 188.585 85.738 188.585C87.2053 188.585 88.3875 189.778 88.3875 191.235C88.3875 192.128 87.9365 192.928 87.2594 193.41L87.2832 193.474L88.6275 196.069H116.002C115.246 196.383 114.432 196.8 113.98 197.516C113.611 198.106 113.562 198.935 114.093 199.45C114.554 199.917 115.212 200.029 115.84 199.926C116.428 199.838 117.12 199.588 117.557 199.2C118.726 198.155 120.134 197.405 121.576 196.826C123.176 196.197 124.83 195.721 126.489 195.294C128.187 194.867 129.894 194.499 131.603 194.224C131.882 194.175 132.157 194.136 132.432 194.087C132.648 194.048 132.849 194.023 133.06 193.999H133.084C134.041 193.861 134.999 193.773 135.965 193.685C132.809 194.641 125.021 197.364 126.264 200.569C126.277 200.608 126.303 200.633 126.316 200.667C127.058 202.292 129.943 202.204 130.975 201.197H200.674C201.729 202.228 204.595 202.292 205.336 200.667C205.351 200.633 205.375 200.608 205.385 200.569C206.631 197.354 198.839 194.641 195.688 193.685C196.64 193.773 197.597 193.861 198.54 193.999H198.553C198.765 194.038 198.967 194.062 199.182 194.087C199.457 194.136 199.747 194.175 200.021 194.224C201.744 194.499 203.437 194.867 205.135 195.294C206.794 195.706 208.452 196.197 210.062 196.826C211.505 197.39 212.913 198.155 214.081 199.2C214.517 199.588 215.209 199.838 215.799 199.926C216.427 200.029 217.084 199.902 217.546 199.45C218.061 198.935 218.026 198.121 217.658 197.516C217.222 196.8 216.402 196.383 215.637 196.069H243.01L244.354 193.474L244.379 193.41C243.702 192.928 243.251 192.138 243.251 191.235C243.251 189.764 244.433 188.585 245.901 188.585C247.373 188.585 248.55 189.778 248.55 191.235C248.55 192.074 248.148 192.83 247.535 193.322L247.623 193.483L248.967 196.084H329.056V191.147H328.163V164.49H329.056V162.954H329.749V161.899L318.089 159.361Z" fill="#085475"/>
<path d="M259.003 234.161L274.054 275.81H185.309C187.369 279.781 189.068 283.033 190.864 286.449H140.798C142.585 283.019 144.278 279.781 146.338 275.81H57.5935L72.6439 234.161L80.786 230.505H82.4933C77.9493 242.881 73.1251 256.058 68.512 268.596H156.478C154.642 272.277 152.998 275.585 151.163 279.264H180.474C178.639 275.585 176.996 272.277 175.16 268.596H263.14C258.527 256.058 253.689 242.881 249.144 230.505H250.852L259.003 234.161ZM267.233 237.856L284.095 281.763H196.301C198.49 286.086 200.462 289.978 202.607 294.237H129.064C131.214 289.978 133.187 286.096 135.371 281.763H47.5821L64.4541 237.856L70.9856 234.917L55.8611 276.777H144.444C142.358 280.796 140.675 284.065 138.767 287.731H192.9C190.986 284.05 189.304 280.796 187.217 276.777H275.801L260.676 234.917L267.233 237.856ZM159.029 230.52L165.826 235.721L172.623 230.52L247.887 230.48L261.379 267.355H173.114C174.944 271.011 176.618 274.303 178.399 277.832H153.248C155.019 274.303 156.693 271.011 158.538 267.355H70.2695L83.7747 230.48L159.029 230.52ZM273.667 236.977L273.868 236.753C283.467 225.446 290.926 213.285 296.658 199.603L296.829 199.175H288.477L288.403 199.353C286.253 204.177 283.815 208.888 281.179 213.344C278.589 217.716 275.674 222.015 272.547 226.147L261.531 217.201L261.33 217.456C259.567 219.767 257.713 222.025 255.813 224.19C254.356 225.848 252.801 227.477 251.215 229.102H229.961C240.664 220.798 249.081 211.313 256.088 199.638L256.367 199.175H247.308L247.205 199.314C245.184 202.38 243.039 205.291 240.802 207.98C238.563 210.684 236.189 213.285 233.715 215.695C231.241 218.094 228.577 220.406 225.799 222.565C223.037 224.705 220.073 226.765 216.956 228.708L216.142 229.102H172.172L165.811 233.975L159.457 229.102H115.496L114.681 228.708C111.565 226.775 108.587 224.705 105.823 222.565C103.045 220.406 100.396 218.109 97.9081 215.695C95.4244 213.285 93.0487 210.684 90.8113 207.98C88.5977 205.281 86.4393 202.365 84.4029 199.314L84.3036 199.175H75.2445L75.5196 199.638C82.5323 211.287 90.9633 220.784 101.667 229.102H80.4317C78.8526 227.506 77.291 225.872 75.8337 224.19C73.9254 222.025 72.0799 219.752 70.3236 217.456L70.1213 217.201L59.1048 226.147C55.9641 222.025 53.0583 217.716 50.4577 213.344C47.8082 208.898 45.3835 204.187 43.234 199.353L43.1461 199.175H34.793L34.9701 199.603C40.7114 213.295 48.1713 225.446 57.7606 236.753L57.9616 236.977L68.9781 228.031C70.2595 229.528 71.6037 230.995 72.9731 232.443L57.6073 239.353L38.3608 287.607H125.89C123.588 291.788 121.567 295.493 119.368 299.488H212.181C209.997 295.493 207.961 291.788 205.664 287.607H293.188L273.942 239.353L258.576 232.443C259.945 230.995 261.29 229.528 262.571 228.031L273.667 236.977Z" fill="#085475"/>
<path d="M126.442 246.4C125.45 245.506 124.572 244.466 123.792 243.396C123.051 244.466 122.173 245.483 121.181 246.4H126.442ZM121.028 255.734H126.014V252.353H121.028V255.734ZM118.114 250.233H129.106V258.835H126.014V257.884H121.028V258.85H118.114V250.233ZM113.25 243.848H111.43V251.312H113.25V243.848ZM125.425 240.506C125.322 240.707 125.224 240.957 125.111 241.184C126.594 243.411 129.116 245.581 131.771 246.739C131.065 247.205 130.136 248.093 129.621 248.711C129.033 248.382 128.454 248.019 127.899 247.631V248.598H119.557V247.744C118.968 248.171 118.364 248.549 117.696 248.912C117.333 248.485 116.631 247.833 115.989 247.376V253.52H111.391V255.317H108.652V241.65H115.979V246.9C119.017 245.241 121.406 242.582 122.598 239.853L125.425 240.506Z" fill="#085475"/>
<path d="M177.583 254.978V257.416H154.527V254.978H164.176V244.5H155.887V241.977H176.149V244.5H167.631V254.978H177.583Z" fill="#085475"/>
<path d="M214.143 247.808C215.811 251.763 218.888 254.944 223.624 256.474C222.873 256.99 221.867 258.054 221.392 258.747C216.793 257.014 213.854 254.061 211.88 250.144C210.511 253.52 207.774 256.685 202.394 258.762C201.919 258.085 201.026 257.23 200.133 256.715C205.948 254.654 208.348 251.273 209.344 247.793H200.623V245.306H209.844C210.094 243.396 210.07 241.552 210.094 239.902H213.397C213.373 241.56 213.348 243.436 213.083 245.306H223.05V247.793H214.143V247.808Z" fill="#085475"/>
</g>
</g>
<defs>
<clipPath id="clip0_20_2">
<rect width="331.662" height="301.511" fill="white"/>
</clipPath>
</defs>
</svg>
